<svg width="15" height="16" viewBox="0 0 15 16" fill="none" xmlns="http://www.w3.org/2000/svg">
<path d="M7.5625 4.30664C9.6543 4.30664 11.3809 6.0332 11.3809 8.125C11.3809 10.25 9.6543 11.9434 7.5625 11.9434C5.4375 11.9434 3.74414 10.25 3.74414 8.125C3.74414 6.0332 5.4375 4.30664 7.5625 4.30664ZM7.5625 10.6152C8.92383 10.6152 10.0195 9.51953 10.0195 8.125C10.0195 6.76367 8.92383 5.66797 7.5625 5.66797C6.16797 5.66797 5.07227 6.76367 5.07227 8.125C5.07227 9.51953 6.20117 10.6152 7.5625 10.6152ZM12.4102 4.17383C12.4102 4.67188 12.0117 5.07031 11.5137 5.07031C11.0156 5.07031 10.6172 4.67188 10.6172 4.17383C10.6172 3.67578 11.0156 3.27734 11.5137 3.27734C12.0117 3.27734 12.4102 3.67578 12.4102 4.17383ZM14.9336 5.07031C15 6.29883 15 9.98438 14.9336 11.2129C14.8672 12.4082 14.6016 13.4375 13.7383 14.334C12.875 15.1973 11.8125 15.4629 10.6172 15.5293C9.38867 15.5957 5.70312 15.5957 4.47461 15.5293C3.2793 15.4629 2.25 15.1973 1.35352 14.334C0.490234 13.4375 0.224609 12.4082 0.158203 11.2129C0.0917969 9.98438 0.0917969 6.29883 0.158203 5.07031C0.224609 3.875 0.490234 2.8125 1.35352 1.94922C2.25 1.08594 3.2793 0.820312 4.47461 0.753906C5.70312 0.6875 9.38867 0.6875 10.6172 0.753906C11.8125 0.820312 12.875 1.08594 13.7383 1.94922C14.6016 2.8125 14.8672 3.875 14.9336 5.07031ZM13.3398 12.5078C13.7383 11.5449 13.6387 9.2207 13.6387 8.125C13.6387 7.0625 13.7383 4.73828 13.3398 3.74219C13.0742 3.11133 12.5762 2.58008 11.9453 2.34766C10.9492 1.94922 8.625 2.04883 7.5625 2.04883C6.4668 2.04883 4.14258 1.94922 3.17969 2.34766C2.51562 2.61328 2.01758 3.11133 1.75195 3.74219C1.35352 4.73828 1.45312 7.0625 1.45312 8.125C1.45312 9.2207 1.35352 11.5449 1.75195 12.5078C2.01758 13.1719 2.51562 13.6699 3.17969 13.9355C4.14258 14.334 6.4668 14.2344 7.5625 14.2344C8.625 14.2344 10.9492 14.334 11.9453 13.9355C12.5762 13.6699 13.1074 13.1719 13.3398 12.5078Z" fill="white"/>
</svg>
