<svg width="15" height="18" viewBox="0 0 15 18" fill="none" xmlns="http://www.w3.org/2000/svg">
<path d="M15 7.59766H14.9668C13.4395 7.59766 12.0449 7.13281 10.916 6.30273V12.2461C10.916 15.2344 8.49219 17.625 5.50391 17.625C2.51562 17.625 0.125 15.2344 0.125 12.2461C0.125 9.25781 2.51562 6.83398 5.50391 6.83398C5.76953 6.83398 6.00195 6.86719 6.26758 6.90039V9.88867C6.00195 9.78906 5.76953 9.75586 5.50391 9.75586C4.14258 9.75586 3.01367 10.8848 3.01367 12.2461C3.01367 13.6074 4.14258 14.7363 5.50391 14.7363C6.86523 14.7363 7.99414 13.6074 7.99414 12.2461V0.625H10.916C10.916 0.658203 10.916 0.658203 10.916 0.691406C10.916 0.923828 10.916 1.15625 10.9824 1.38867C11.1816 2.48438 11.8457 3.44727 12.7754 4.04492C13.4062 4.47656 14.1699 4.70898 14.9668 4.70898C14.9668 4.70898 14.9668 4.70898 15 4.70898V7.59766Z" fill="white"/>
</svg>
