<svg width="15" height="16" viewBox="0 0 15 16" fill="none" xmlns="http://www.w3.org/2000/svg">
<path d="M12.7422 2.87891C14.1367 4.27344 15 6.09961 15 8.0918C15 12.1426 11.6133 15.4629 7.5293 15.4629C6.30078 15.4629 5.10547 15.1309 4.00977 14.5664L0.125 15.5625L1.1543 11.7441C0.523438 10.6484 0.158203 9.38672 0.158203 8.05859C0.158203 4.00781 3.47852 0.6875 7.5293 0.6875C9.52148 0.6875 11.3809 1.48438 12.7422 2.87891ZM7.5293 14.2012C10.916 14.2012 13.7383 11.4453 13.7383 8.0918C13.7383 6.43164 13.041 4.9043 11.8789 3.74219C10.7168 2.58008 9.18945 1.94922 7.5625 1.94922C4.17578 1.94922 1.41992 4.70508 1.41992 8.05859C1.41992 9.2207 1.75195 10.3496 2.34961 11.3457L2.51562 11.5781L1.88477 13.8359L4.20898 13.2051L4.4082 13.3379C5.37109 13.9023 6.43359 14.2012 7.5293 14.2012ZM10.916 9.61914C11.082 9.71875 11.2148 9.75195 11.248 9.85156C11.3145 9.91797 11.3145 10.2832 11.1484 10.7148C10.9824 11.1465 10.252 11.5449 9.91992 11.5781C9.32227 11.6777 8.85742 11.6445 7.69531 11.1133C5.83594 10.3164 4.64062 8.45703 4.54102 8.35742C4.44141 8.22461 3.81055 7.36133 3.81055 6.43164C3.81055 5.53516 4.27539 5.10352 4.44141 4.9043C4.60742 4.70508 4.80664 4.67188 4.93945 4.67188C5.03906 4.67188 5.17188 4.67188 5.27148 4.67188C5.4043 4.67188 5.53711 4.63867 5.70312 5.00391C5.83594 5.36914 6.23438 6.26562 6.26758 6.36523C6.30078 6.46484 6.33398 6.56445 6.26758 6.69727C5.93555 7.39453 5.53711 7.36133 5.73633 7.69336C6.4668 8.92188 7.16406 9.35352 8.25977 9.88477C8.42578 9.98438 8.52539 9.95117 8.6582 9.85156C8.75781 9.71875 9.12305 9.28711 9.22266 9.12109C9.35547 8.92188 9.48828 8.95508 9.6543 9.02148C9.82031 9.08789 10.7168 9.51953 10.916 9.61914Z" fill="white"/>
</svg>
